<?xml version="1.0" standalone="no"?>
<!DOCTYPE svg PUBLIC "-//W3C//DTD SVG 20010904//EN"
 "http://www.w3.org/TR/2001/REC-SVG-20010904/DTD/svg10.dtd">
<svg version="1.0" xmlns="http://www.w3.org/2000/svg"
 width="985.000000pt" height="204.000000pt" viewBox="0 0 985.000000 204.000000"
 preserveAspectRatio="xMidYMid meet">
<metadata>
Created by potrace 1.16, written by Peter Selinger 2001-2019
</metadata>
<style type="text/css">
<![CDATA[
  .animation-love__path {
    stroke-dasharray: 31971;
    stroke-dashoffset: 31971;
    animation: dash 8s linear forwards;
  }

  @keyframes dash {
    to { stroke-dashoffset: 0; }
  }
]]>
</style>
<g transform="translate(0.000000,204.000000) scale(0.100000,-0.100000)"
stroke="#ea7186" stroke-width="50" style="" class="animation-love__path" fill-opacity="0">
<path d="M5285 2025 c-180 -34 -344 -134 -438 -266 -23 -32 -45 -58 -49 -58
-4 -1 -17 18 -29 41 -12 24 -48 70 -81 104 -78 81 -153 117 -261 122 -68 4
-84 1 -132 -23 -66 -32 -108 -87 -130 -171 -19 -73 -19 -139 0 -246 45 -258
262 -677 508 -983 44 -55 84 -105 89 -111 5 -8 -34 -33 -119 -77 -280 -143
-536 -223 -888 -277 -200 -31 -594 -39 -795 -16 -327 38 -490 81 -986 261
-390 142 -557 193 -742 229 -324 63 -644 61 -857 -5 -38 -12 -122 -48 -187
-80 -111 -56 -118 -61 -152 -117 -20 -33 -36 -62 -36 -66 0 -21 41 3 101 58
174 161 455 235 788 208 355 -30 634 -103 1151 -300 207 -79 401 -140 565
-176 442 -99 988 -96 1427 8 222 52 489 152 677 252 46 24 91 44 100 44 9 -1
61 -34 116 -75 120 -89 183 -122 341 -174 380 -127 752 -120 1139 19 50 18
276 127 503 242 227 115 458 227 514 249 305 121 656 172 935 135 148 -20 317
-62 444 -112 215 -83 472 -164 629 -198 214 -45 374 -69 401 -61 50 16 -10 37
-207 71 -273 48 -380 75 -584 151 -395 147 -537 185 -770 204 -286 24 -588
-31 -901 -163 -120 -50 -164 -72 -649 -320 -260 -133 -397 -185 -600 -229 -90
-20 -135 -23 -315 -24 -180 0 -226 3 -323 23 -217 44 -400 120 -534 221 -101
77 -103 67 25 154 481 325 777 711 827 1077 36 260 -71 422 -300 459 -82 14
-127 13 -215 -4z m267 -55 c122 -37 196 -133 206 -263 22 -303 -194 -687 -551
-981 -119 -97 -363 -266 -386 -266 -17 0 -131 134 -224 264 -83 115 -167 259
-247 421 -115 237 -156 386 -148 539 7 123 54 198 147 231 57 20 76 19 155 -5
90 -28 169 -101 224 -208 l40 -77 -28 -110 c-31 -115 -38 -211 -19 -248 21
-41 52 -67 80 -67 26 0 28 4 39 58 7 31 16 75 20 97 7 29 3 72 -13 158 l-21
118 29 57 c113 217 458 356 697 282z"/>
</g>
</svg>
