<?xml version="1.0" standalone="no"?>
<!DOCTYPE svg PUBLIC "-//W3C//DTD SVG 20010904//EN"
 "http://www.w3.org/TR/2001/REC-SVG-20010904/DTD/svg10.dtd">
<svg version="1.0" xmlns="http://www.w3.org/2000/svg"
 width="3143.000000pt" height="507.000000pt" viewBox="0 0 3143.000000 507.000000"
 preserveAspectRatio="xMidYMid meet">
<metadata>
Created by potrace 1.16, written by Peter Selinger 2001-2019
</metadata>
<g transform="translate(0.000000,507.000000) scale(0.100000,-0.100000)"
fill="#000000" stroke="none">
<path d="M20540 5064 c-14 -2 -65 -9 -115 -15 -374 -45 -760 -190 -1032 -386
-156 -113 -240 -189 -395 -358 -183 -197 -199 -217 -285 -347 -169 -256 -285
-590 -344 -985 -23 -158 -47 -217 -99 -248 l-35 -20 -9117 -3 -9118 -2 0 -25
0 -25 9192 2 9192 3 12 60 c7 33 19 121 28 197 21 188 49 317 107 494 111 338
295 646 529 887 296 305 719 547 1139 653 324 82 687 90 1026 23 236 -47 620
-171 733 -236 168 -98 198 -124 550 -494 l244 -256 52 -119 c29 -65 66 -146
83 -179 52 -103 131 -307 162 -420 41 -143 60 -256 68 -396 l6 -116 -153 -6
c-84 -4 -615 -7 -1179 -7 -1383 0 -2151 -14 -2863 -51 l-228 -12 0 -42 0 -41
770 -79 c758 -78 770 -80 770 -101 0 -33 -15 -40 -140 -68 -163 -36 -254 -50
-605 -96 -490 -64 -658 -95 -887 -165 -150 -45 -196 -65 -178 -75 24 -13 213
-57 360 -84 183 -34 393 -59 780 -96 179 -17 412 -42 517 -55 194 -25 446 -70
471 -84 17 -10 -160 -62 -323 -96 -66 -13 -219 -40 -341 -59 -263 -42 -428
-76 -564 -116 -110 -33 -310 -117 -310 -131 0 -13 119 -91 170 -110 55 -21
179 -43 860 -153 550 -90 736 -130 703 -153 -26 -20 -245 -88 -358 -113 -55
-11 -213 -39 -351 -60 -302 -47 -431 -73 -544 -109 l-85 -27 3 -45 c2 -24 6
-47 10 -50 4 -3 322 -34 707 -68 385 -34 715 -65 733 -68 23 -4 34 -12 38 -30
4 -13 4 -26 2 -29 -3 -2 -151 -47 -329 -100 -178 -53 -329 -99 -335 -103 -7
-4 -8 -17 -2 -39 8 -31 10 -32 66 -32 94 0 527 29 682 46 195 21 348 48 510
90 127 33 337 106 351 122 3 4 9 30 12 59 5 43 3 53 -11 57 -9 3 -233 46 -496
95 -263 50 -480 92 -482 94 -7 7 293 27 621 42 495 22 767 44 951 76 l61 11 7
56 c4 30 3 58 -1 62 -4 4 -451 89 -993 190 -542 101 -988 186 -992 189 -4 4
-5 23 -1 44 l6 37 1143 0 1144 0 0 48 0 48 -477 57 c-1258 152 -1153 137
-1153 163 0 26 -2 25 130 49 131 23 307 42 635 70 431 36 653 67 850 116 110
27 235 69 235 78 0 8 -169 58 -308 91 -186 45 -448 85 -862 135 -419 50 -670
90 -903 146 -71 17 -125 35 -120 40 14 14 186 66 258 78 39 6 171 18 295 26
124 9 556 40 960 70 1271 94 1817 126 2490 145 778 22 2507 31 4528 24 l2052
-7 0 27 0 27 -927 -3 c-511 -2 -1769 1 -2798 6 -2178 10 -2934 1 -4070 -49
-656 -29 -1021 -54 -1475 -100 -309 -32 -1248 -143 -1275 -151 -11 -4 -55 -22
-97 -42 -69 -30 -78 -38 -78 -61 0 -41 13 -52 86 -72 225 -64 513 -113 899
-154 629 -67 803 -91 1053 -147 91 -20 138 -34 129 -39 -24 -14 -285 -59 -457
-79 -91 -10 -282 -28 -425 -40 -414 -33 -632 -62 -846 -111 l-89 -21 0 -53 c0
-51 1 -52 33 -57 17 -3 295 -43 617 -89 542 -78 580 -85 515 -91 -38 -4 -360
-11 -715 -17 -607 -9 -808 -18 -1010 -41 -148 -18 -140 -14 -140 -75 0 -42 4
-55 18 -59 17 -5 1988 -376 1997 -376 3 0 5 -11 5 -24 0 -22 -6 -24 -87 -35
-177 -24 -307 -31 -738 -41 -462 -11 -662 -21 -834 -45 -58 -8 -108 -15 -113
-15 -4 0 -8 -20 -8 -45 0 -25 5 -45 10 -45 13 0 1114 -187 1148 -195 18 -4 22
-12 22 -45 0 -22 -2 -40 -5 -40 -3 0 -262 -43 -575 -95 -313 -52 -572 -95
-575 -95 -3 0 -5 8 -5 18 0 13 47 37 188 96 103 44 191 82 196 87 4 4 5 25 1
47 -6 39 -7 40 -81 62 -185 55 -326 73 -739 95 -154 8 -302 18 -330 21 -118
13 -271 37 -278 44 -18 16 227 66 563 115 228 34 352 59 475 96 106 32 275
106 275 121 0 16 -124 89 -185 107 -58 18 -172 37 -840 141 -338 53 -458 77
-700 142 l-40 11 45 19 c174 75 376 126 779 198 156 28 336 64 400 80 169 43
361 111 361 128 0 10 -113 56 -210 85 -155 46 -290 67 -565 87 -82 6 -260 22
-395 35 -241 24 -978 95 -987 95 -2 0 -3 12 -1 28 3 25 8 28 83 44 148 32 378
68 695 108 345 44 542 76 702 114 129 30 328 94 328 105 0 12 -146 77 -225
100 -97 28 -218 48 -362 61 -68 5 -178 15 -245 20 -68 6 -174 20 -236 32 -107
19 -113 22 -108 42 3 11 6 24 6 29 0 4 900 7 2000 7 l2000 0 0 35 c0 20 -7
102 -15 182 -46 436 -161 763 -360 1029 -29 39 -68 100 -85 135 -84 167 -218
324 -358 420 -42 29 -106 78 -142 109 -95 82 -138 114 -223 164 -71 42 -217
110 -217 101 0 -2 -37 14 -83 35 -169 78 -400 139 -625 165 -114 13 -470 19
-542 9z"/>
</g>
</svg>
