<?xml version="1.0" standalone="no"?>
<!DOCTYPE svg PUBLIC "-//W3C//DTD SVG 20010904//EN"
 "http://www.w3.org/TR/2001/REC-SVG-20010904/DTD/svg10.dtd">
<svg version="1.0" xmlns="http://www.w3.org/2000/svg"
 width="522.000000pt" height="219.000000pt" viewBox="0 0 522.000000 219.000000"
 preserveAspectRatio="xMidYMid meet">
<metadata>
Created by potrace 1.16, written by Peter Selinger 2001-2019
</metadata>
<style type="text/css">
<![CDATA[
  .animation-pour__path {
    stroke-dasharray: 52996;
    stroke-dashoffset: 52996;
    animation: dash 20s linear forwards;
  }

  @keyframes dash {
    to { stroke-dashoffset: 0; }
  }
]]>
</style>
<g transform="translate(0.000000,219.000000) scale(0.100000,-0.100000)"
stroke="#000000" stroke-width="50" style="" class="animation-pour__path" fill-opacity="0">
<path d="M4925 2175 c-23 -8 -58 -33 -82 -60 -84 -92 -105 -212 -81 -454 16
-154 11 -217 -26 -296 -34 -74 -68 -105 -118 -105 -22 0 -48 5 -59 11 -23 12
-160 31 -439 59 -113 11 -233 27 -268 35 -35 8 -110 15 -168 15 -79 0 -118 5
-162 20 -85 30 -241 128 -382 241 -69 55 -142 109 -162 119 -40 22 -83 26 -93
10 -10 -16 -49 -12 -96 10 -24 11 -57 20 -73 20 -32 0 -32 -8 -5 -103 11 -40
11 -52 0 -80 -19 -43 -24 -113 -14 -162 6 -24 6 -54 0 -75 -5 -19 -10 -51 -11
-70 -1 -32 3 -37 49 -60 36 -18 66 -25 107 -25 55 0 56 -1 66 -33 14 -46 -4
-51 -92 -22 -134 43 -268 108 -299 146 -90 109 -253 102 -382 -17 -52 -48 -80
-96 -90 -154 -4 -22 -15 -49 -25 -60 -27 -31 -29 -57 -14 -146 8 -46 11 -86 6
-91 -5 -5 -40 -2 -79 6 -39 8 -134 25 -213 36 -203 30 -220 21 -305 -150 -26
-52 -52 -98 -56 -101 -5 -3 -23 -4 -39 -1 -34 5 -38 -10 48 186 68 156 78 201
50 219 -23 15 -88 -16 -137 -65 -33 -32 -38 -34 -35 -15 54 344 81 439 185
661 102 219 103 244 2 195 -65 -32 -156 -129 -202 -219 -43 -82 -86 -225 -97
-321 -4 -33 -10 -59 -13 -59 -4 0 -13 28 -20 63 -36 181 -227 637 -266 637
-18 0 -17 -14 15 -155 28 -122 52 -257 47 -262 -3 -2 -14 11 -25 29 -29 46
-166 178 -186 178 -23 0 -21 -7 25 -85 104 -178 174 -352 204 -507 30 -157 74
-473 67 -479 -4 -3 -29 -12 -55 -19 -92 -25 -125 -80 -75 -128 45 -41 74 -46
328 -52 l245 -5 -2 -72 c-2 -72 -33 -226 -54 -264 -10 -20 -16 -20 -157 -14
-207 10 -206 10 -273 196 -22 63 -49 123 -59 133 -18 19 -19 19 -25 -6 -6 -24
72 -314 96 -360 5 -9 24 -19 42 -21 17 -2 -199 -5 -480 -5 -334 -1 -513 -5
-513 -12 0 -13 1026 -13 1219 -1 109 8 137 12 151 28 28 29 82 269 78 350 l-3
68 -60 6 c-33 3 -48 6 -34 7 14 1 41 12 60 25 54 36 51 93 -7 125 -13 7 -8 25
38 118 l53 109 60 -3 c104 -6 241 -38 319 -76 41 -20 123 -74 182 -121 100
-79 110 -85 154 -85 26 0 72 9 103 19 88 31 236 111 278 151 46 43 49 74 19
160 -12 34 -15 59 -9 65 16 16 10 159 -10 224 -10 34 -18 61 -16 61 1 0 45
-19 96 -41 103 -46 177 -69 226 -69 38 0 51 28 33 74 -9 25 -7 32 20 62 34 39
40 74 12 74 -10 0 -30 -19 -46 -44 -16 -26 -38 -47 -52 -50 -53 -14 -172 40
-159 72 24 58 27 90 14 155 -12 64 -11 71 9 113 27 55 27 66 3 137 -11 32 -16
57 -11 57 5 0 35 -11 67 -26 55 -24 67 -25 105 -9 15 6 15 3 3 -32 -18 -50
-18 -74 1 -101 20 -29 67 -29 95 -1 18 18 20 29 15 65 l-5 43 107 -86 c190
-153 361 -252 466 -272 27 -5 84 -7 126 -4 46 4 91 1 110 -5 18 -7 138 -23
268 -37 339 -35 388 -43 469 -66 85 -26 115 -21 158 26 42 44 71 107 85 183 9
50 8 96 -6 229 -23 230 -7 315 82 412 40 46 79 64 125 59 48 -4 48 -27 0 -106
-66 -109 -76 -167 -61 -352 16 -197 9 -467 -13 -530 -22 -61 -21 -102 3 -133
31 -40 50 -92 50 -140 0 -67 26 -140 104 -292 76 -148 100 -212 116 -310 21
-126 9 -193 -36 -214 -23 -10 -44 2 -24 14 5 3 10 17 10 31 0 34 -26 31 -45
-6 -9 -17 -21 -28 -26 -24 -7 4 2 20 21 39 l32 33 -17 58 c-35 121 -48 132
-216 180 -145 41 -168 52 -220 109 -39 42 -79 59 -79 34 0 -6 22 -33 49 -61
53 -54 78 -117 67 -164 -9 -36 -97 -126 -169 -174 -51 -34 -67 -40 -113 -40
-30 0 -54 2 -54 5 0 3 7 21 14 40 10 24 22 35 35 35 13 0 39 23 72 65 28 36
57 65 64 65 15 0 30 18 22 26 -2 3 -15 7 -27 9 -34 7 -84 58 -145 150 -90 134
-82 130 -248 127 -176 -3 -381 13 -467 36 l-65 17 -3 83 c-2 64 -6 82 -18 82
-23 0 -36 -49 -29 -105 13 -91 7 -218 -15 -350 -44 -262 -96 -328 -220 -279
-33 13 -38 19 -29 30 6 8 22 14 34 14 18 0 22 -4 18 -20 -8 -29 33 -27 43 3
25 69 -25 466 -65 531 -11 17 -35 57 -52 90 -47 84 -83 105 -205 117 -131 13
-149 20 -251 95 -85 62 -133 80 -133 49 0 -23 54 -77 112 -113 62 -37 164 -62
256 -62 60 0 65 -2 95 -35 18 -20 55 -60 84 -88 l52 -53 39 -226 c22 -125 36
-231 33 -237 -4 -6 -30 -15 -59 -22 -57 -12 -78 -35 -68 -75 11 -43 35 -47
341 -55 431 -12 1115 -11 1115 1 0 6 -73 10 -197 10 -109 0 -391 3 -627 7
-364 5 -424 8 -403 20 56 29 102 181 130 426 8 71 17 130 19 132 2 2 25 -2 51
-10 75 -23 298 -38 446 -32 175 8 179 6 266 -124 36 -54 82 -111 101 -127 l34
-28 -48 -59 c-34 -42 -57 -61 -82 -68 -47 -12 -70 -34 -70 -68 0 -37 26 -50
104 -51 71 -2 98 11 198 94 85 71 112 116 105 175 -2 27 -8 56 -12 65 -6 15 6
13 82 -12 48 -16 115 -36 147 -45 73 -20 106 -52 131 -126 l18 -57 -26 -32
c-49 -57 -26 -92 61 -94 37 -1 48 4 69 29 25 28 25 32 20 140 -6 139 -27 206
-122 395 -77 154 -105 231 -105 289 0 54 -18 107 -47 141 l-26 31 19 82 c16
68 19 120 19 302 -1 121 -3 265 -5 320 -5 118 5 156 60 247 49 82 54 133 14
148 -33 13 -51 12 -99 -5z m-3906 -700 c53 -162 86 -322 98 -478 12 -143 29
-120 25 33 -6 214 41 441 121 580 38 68 129 160 185 189 23 12 42 17 42 13 0
-5 -28 -62 -61 -127 -102 -196 -127 -278 -194 -650 -14 -77 -36 -177 -50 -223
-22 -75 -24 -112 -6 -112 12 0 29 43 42 109 6 34 24 81 40 106 46 72 149 135
149 90 0 -8 -26 -77 -58 -152 -32 -76 -64 -153 -71 -170 -16 -40 -39 -45 -171
-41 l-95 3 -7 40 c-4 22 -18 117 -32 210 -46 311 -70 396 -174 605 -37 74 -68
140 -71 145 -8 21 62 -52 104 -107 72 -96 81 -124 130 -412 25 -149 51 -276
56 -283 24 -29 32 1 26 101 -7 120 -38 281 -73 374 -21 58 -116 487 -113 516
2 28 114 -226 158 -359z m1394 -114 c30 -12 94 -67 108 -94 10 -18 9 -19 -13
-14 -15 4 -33 0 -47 -10 -21 -14 -23 -22 -19 -74 l4 -59 -20 19 c-36 33 -90
61 -117 61 -26 0 -179 -49 -218 -70 -30 -15 -32 -11 -21 31 24 84 112 174 205
207 38 13 106 15 138 3z m-14 -246 c98 -72 166 -160 197 -255 27 -82 13 -101
-137 -182 -137 -74 -196 -98 -243 -98 -35 0 -51 9 -151 91 -94 76 -145 107
-235 140 -41 15 -71 28 -67 29 5 0 62 -13 127 -30 65 -16 127 -30 138 -30 18
0 20 10 25 138 2 75 8 144 11 153 4 9 21 21 39 26 18 6 70 24 117 41 95 34
104 33 179 -23z m-1129 -515 c0 -27 40 -36 76 -17 25 13 32 13 56 1 44 -23 36
-51 -19 -77 -44 -20 -64 -22 -233 -22 -188 0 -250 10 -250 41 0 7 24 21 53 32
31 11 56 28 62 41 9 20 17 21 132 21 116 0 123 -1 123 -20z"/>
</g>
</svg>
