<?xml version="1.0" standalone="no"?>
<!DOCTYPE svg PUBLIC "-//W3C//DTD SVG 20010904//EN"
 "http://www.w3.org/TR/2001/REC-SVG-20010904/DTD/svg10.dtd">
<svg version="1.0" xmlns="http://www.w3.org/2000/svg"
 width="481.000000pt" height="293.000000pt" viewBox="0 0 481.000000 293.000000"
 preserveAspectRatio="xMidYMid meet">
<metadata>
Created by potrace 1.16, written by Peter Selinger 2001-2019
</metadata>
<style type="text/css">
<![CDATA[
  .animation-bloom__path {
    stroke-dasharray: 254259;
    stroke-dashoffset: 254259;
    animation: dash 100s linear forwards;
  }

  @keyframes dash {
    to { stroke-dashoffset: 0; }
  }
]]>
</style>
<g transform="translate(0.000000,293.000000) scale(0.100000,-0.100000)"
stroke="#ea7186" stroke-width="100" style="" class="animation-bloom__path" fill-opacity="0">
<path d="M4740 2891 c-161 -137 -625 -500 -723 -565 l-118 -79 -23 22 c-30 28
-108 29 -153 1 -26 -15 -33 -27 -33 -50 0 -43 34 -57 101 -44 27 6 49 8 49 4
0 -37 -385 -407 -543 -522 l-29 -21 15 29 c8 16 38 97 67 179 29 82 58 162 66
177 15 29 19 68 7 68 -5 0 -18 -18 -30 -39 -58 -102 -306 -231 -513 -266 -97
-17 -172 -42 -227 -77 l-33 -20 0 91 c0 113 -10 117 -91 31 -65 -68 -109 -149
-116 -214 -13 -113 117 -267 227 -270 47 -1 64 18 -141 -159 -81 -69 -164
-146 -184 -169 -21 -24 -39 -38 -42 -33 -66 150 -121 259 -130 262 -18 6 -53
-34 -53 -61 0 -15 -7 -26 -20 -29 -12 -3 -20 -14 -20 -26 0 -18 -3 -19 -26
-11 -37 15 -103 12 -186 -6 -42 -10 -122 -17 -188 -18 -110 -1 -119 -3 -185
-35 -92 -45 -165 -119 -193 -193 -34 -92 -45 -209 -33 -347 6 -66 11 -157 11
-204 0 -56 4 -88 13 -95 6 -5 42 -12 78 -14 70 -4 67 -2 199 -97 30 -22 71
-44 90 -49 23 -7 -254 -10 -797 -11 -733 -1 -833 -3 -833 -16 0 -13 97 -15
818 -14 449 0 876 4 948 8 117 7 138 11 199 39 83 40 108 40 178 2 31 -17 61
-30 67 -30 6 0 10 25 10 58 0 75 23 152 66 222 18 30 45 84 58 119 49 124 123
219 205 260 22 12 41 26 41 31 0 9 -34 17 -95 22 -28 3 -23 7 53 52 90 53 78
51 220 30 28 -4 42 -3 42 4 0 27 -79 44 -293 61 -77 7 -133 17 -162 30 -25 11
-45 21 -45 23 0 2 15 3 33 1 28 -3 51 11 177 107 80 60 196 144 259 186 63 41
139 96 169 120 31 25 82 59 114 75 32 16 82 53 111 81 28 28 115 104 193 169
290 243 477 427 510 505 9 22 32 42 71 64 32 18 94 58 138 88 135 94 725 573
725 588 0 24 -23 16 -70 -25z m-1615 -1147 c-168 -162 -197 -181 -352 -239
-45 -16 -73 -33 -75 -43 -3 -14 -7 -11 -22 10 -24 37 -15 87 26 133 50 57 194
140 314 180 60 20 143 54 184 75 41 21 77 39 80 39 3 0 -67 -70 -155 -155z
m-525 -134 c9 -109 30 -199 53 -228 7 -9 7 -16 -1 -24 -16 -16 -98 30 -143 80
-35 40 -69 115 -69 151 0 31 58 137 101 185 l44 50 3 -50 c1 -27 6 -101 12
-164z m673 119 c-47 -111 -86 -163 -172 -228 -94 -72 -102 -75 -222 -96 -51
-9 -105 -23 -120 -31 -38 -19 -39 -19 -27 19 8 27 19 36 59 50 83 30 406 253
478 331 14 14 26 24 28 22 2 -2 -9 -32 -24 -67z m-1149 -660 c15 -22 51 -66
79 -97 48 -53 187 -275 187 -300 0 -6 -5 -23 -11 -39 -11 -28 -11 -28 -28 27
-26 81 -42 107 -137 227 -83 103 -139 197 -128 215 8 12 9 11 38 -33z m-92
-16 c15 -16 19 -28 14 -48 -7 -26 -10 -27 -50 -22 -56 8 -206 56 -206 66 0 13
100 30 163 27 43 -2 63 -8 79 -23z m-211 -55 c54 -17 96 -35 93 -39 -9 -15
-174 -21 -275 -10 -156 16 -216 -3 -283 -88 -24 -30 -27 -32 -21 -11 28 95 86
137 225 165 105 21 155 18 261 -17z m353 -113 c104 -134 142 -203 154 -280 9
-58 9 -61 -46 -190 -36 -86 -67 -142 -89 -165 l-34 -35 8 95 c12 144 7 355
-11 433 -17 73 -55 156 -86 187 -19 19 -19 22 -4 45 9 14 18 24 19 23 2 -2 42
-52 89 -113z m-491 28 c49 -3 138 -1 205 7 134 14 147 11 181 -44 61 -98 86
-272 71 -487 -14 -199 -16 -205 -66 -239 -37 -26 -52 -30 -109 -30 l-67 0 39
44 c148 170 197 399 110 517 -17 24 -159 115 -265 169 -77 40 -72 11 13 -81
128 -139 147 -165 143 -196 -6 -51 -34 -40 -68 27 -96 190 -269 225 -368 74
l-31 -46 -7 28 c-13 50 -8 81 20 144 28 61 28 87 1 59 -23 -24 -86 -141 -106
-198 -29 -82 -26 -202 6 -287 30 -79 53 -119 114 -194 l45 -55 -45 36 c-55 45
-69 50 -149 58 l-65 6 -6 125 c-3 69 -10 167 -14 218 -6 78 -5 92 7 92 9 0 37
41 68 101 32 60 66 110 85 125 37 28 98 45 140 38 17 -2 69 -7 118 -11z m283
-209 c73 -46 98 -100 92 -200 -4 -64 -12 -89 -52 -170 -31 -62 -67 -116 -104
-155 -57 -60 -57 -61 -135 -71 -108 -15 -144 -3 -222 75 -44 44 -74 87 -106
151 -43 88 -44 91 -44 190 1 62 6 113 14 131 l14 30 13 -50 c8 -27 14 -78 14
-111 0 -119 64 -261 139 -311 82 -56 245 -3 272 87 15 49 -5 167 -35 212 -58
88 -194 90 -246 5 -45 -73 -8 -164 85 -208 l40 -19 -38 4 c-22 3 -46 11 -55
18 -30 25 -71 101 -98 181 l-27 81 28 54 c33 62 78 101 129 109 67 11 160 -66
207 -171 11 -25 28 -50 39 -56 26 -14 66 6 80 40 17 41 -9 93 -88 174 l-67 69
50 -28 c28 -16 73 -43 101 -61z m-191 -184 c51 -48 77 -199 41 -239 -27 -30
-97 -61 -137 -61 -66 0 -133 62 -170 160 -30 79 -23 78 19 -1 41 -82 85 -119
138 -119 63 0 124 39 124 80 0 24 -32 27 -50 5 -39 -47 -150 37 -150 113 0 14
15 39 35 59 33 33 39 35 81 30 28 -3 54 -13 69 -27z"/>
</g>
</svg>
