<?xml version="1.0" standalone="no"?>
<!DOCTYPE svg PUBLIC "-//W3C//DTD SVG 20010904//EN"
 "http://www.w3.org/TR/2001/REC-SVG-20010904/DTD/svg10.dtd">

<svg version="1.0" xmlns="http://www.w3.org/2000/svg"
 width="2671.000000pt" height="1239.000000pt" viewBox="0 0 2671.000000 1239.000000"
 preserveAspectRatio="xMidYMid meet">
<metadata>
Created by potrace 1.16, written by Peter Selinger 2001-2019
</metadata>
<style type="text/css">
<![CDATA[
  .animation-boil__path {
    stroke-dasharray: 254259;
    stroke-dashoffset: 254259;
    animation: dash 24s linear forwards;
  }

  @keyframes dash {
    to { stroke-dashoffset: 0; }
  }
]]>
</style>
<g transform="translate(0.000000,1239.000000) scale(0.100000,-0.100000)"
stroke="#ea7186" stroke-width="120" style="" class="animation-boil__path" fill-opacity="0">
<path d="M10374 12380 c-262 -10 -469 -30 -664 -66 -796 -146 -1524 -540
-1952 -1055 -390 -470 -579 -1038 -578 -1741 1 -384 39 -650 166 -1162 71
-284 103 -378 165 -480 22 -37 38 -74 35 -82 -10 -26 -258 -458 -277 -482
l-18 -23 -58 79 c-87 119 -433 502 -643 713 -182 183 -258 246 -483 400 -150
103 -157 102 -337 -15 -280 -183 -576 -389 -607 -422 -96 -100 15 -197 258
-224 227 -26 302 -75 458 -305 192 -282 278 -518 288 -798 5 -132 2 -170 -22
-328 -25 -156 -27 -181 -14 -194 8 -9 71 -22 159 -35 302 -42 481 -90 648
-174 l91 -46 11 42 c7 22 16 69 21 102 47 302 166 763 261 1011 37 96 81 145
128 145 25 0 30 -3 26 -17 -3 -10 -19 -72 -35 -138 -160 -642 -173 -1394 -36
-2189 34 -198 10 -186 297 -147 1317 177 2403 79 3173 -288 66 -32 152 -77
190 -101 187 -114 360 -281 422 -407 33 -67 38 -85 41 -168 5 -110 -11 -175
-69 -283 -128 -240 -372 -434 -719 -572 -284 -113 -734 -211 -1170 -255 -343
-35 -965 -30 -1360 11 -330 34 -842 131 -1055 200 -113 37 -408 146 -418 154
-4 3 47 148 114 321 205 534 299 837 353 1144 40 230 40 215 2 215 -18 0 -84
-16 -147 -36 -386 -122 -695 -299 -887 -509 -172 -187 -207 -422 -98 -650 69
-146 153 -232 391 -404 72 -52 132 -96 135 -98 3 -3 -42 -95 -56 -112 -2 -2
-62 44 -134 103 -73 58 -135 106 -138 106 -4 0 -13 -4 -20 -8 -15 -10 -7 -37
68 -207 75 -173 81 -191 69 -222 -15 -40 -132 -185 -238 -295 -430 -448 -898
-607 -1536 -522 -364 49 -673 180 -927 391 -384 319 -647 868 -733 1528 -16
125 -42 582 -33 591 3 2 68 -7 144 -21 113 -21 200 -29 464 -40 871 -37 1520
-43 1810 -15 605 58 1147 227 1469 457 193 138 347 319 398 466 21 60 25 85
21 157 -3 72 -9 96 -38 154 -109 220 -464 417 -913 507 -845 167 -1788 179
-2737 33 -564 -87 -945 -235 -1239 -483 -162 -137 -252 -353 -210 -505 8 -29
36 -64 113 -140 82 -81 110 -117 143 -181 54 -107 53 -102 132 -485 109 -525
165 -770 256 -1121 47 -180 85 -329 85 -333 0 -3 -625 -6 -1390 -6 l-1390 0 0
-25 c0 -19 7 -26 38 -34 52 -15 2776 -15 2803 -1 13 7 19 21 19 45 0 19 -36
182 -79 362 -105 432 -208 874 -271 1158 -61 275 -90 377 -137 470 -48 96 -92
153 -173 225 -85 75 -100 112 -82 198 42 204 226 384 552 541 387 185 960 297
1705 332 261 12 736 7 1023 -11 654 -42 1161 -164 1449 -349 90 -58 209 -175
244 -241 35 -67 34 -183 -3 -262 -142 -304 -523 -568 -1028 -713 -137 -39
-356 -85 -520 -109 -270 -40 -414 -48 -905 -53 -496 -5 -820 3 -1202 32 -242
19 -302 27 -470 67 -73 17 -136 28 -140 24 -13 -12 -8 -439 6 -576 41 -409
138 -767 291 -1075 160 -324 361 -560 630 -740 344 -231 804 -341 1270 -307
313 24 507 79 725 207 189 111 384 284 554 493 46 56 88 102 94 102 12 0 3
-205 -15 -347 -9 -71 -9 -125 1 -232 83 -950 735 -1641 1796 -1905 280 -69
464 -91 785 -91 305 0 419 14 638 77 508 145 956 483 1306 985 165 237 213
472 158 777 -39 210 -26 438 34 651 28 100 72 205 85 205 5 0 9 -103 9 -228 0
-218 1 -230 21 -247 24 -23 -24 -31 594 110 704 162 918 227 1190 360 174 86
322 181 461 298 161 136 240 243 299 410 9 26 26 53 38 60 17 9 1361 13 6432
17 6171 5 6411 6 6450 23 l40 18 -35 17 c-33 16 -466 17 -6468 20 l-6432 2 5
23 c15 70 69 556 91 822 21 257 30 946 15 1185 -29 464 -92 815 -212 1185 -27
84 -49 170 -49 191 0 48 28 96 70 120 27 16 54 62 164 285 171 343 241 548
310 904 85 443 101 1037 40 1470 -103 732 -415 1330 -962 1845 -490 460 -1009
706 -1642 776 -165 18 -895 26 -1236 14z m1186 -80 c699 -86 1252 -361 1735
-861 614 -636 885 -1335 885 -2284 0 -420 -56 -821 -171 -1230 -106 -376 -206
-597 -361 -797 -57 -74 -63 -78 -75 -61 -8 10 -55 96 -106 191 -50 96 -106
190 -123 210 -80 95 -81 137 -6 312 138 322 230 656 266 970 21 176 21 506 1
670 -28 222 -81 441 -160 657 -49 133 -199 434 -283 567 -347 550 -859 888
-1565 1035 -809 168 -1684 93 -2452 -211 -743 -294 -1203 -865 -1320 -1638
-61 -409 -7 -970 140 -1455 l37 -120 -34 -29 c-18 -16 -107 -97 -196 -180 -90
-83 -167 -152 -171 -154 -17 -6 -74 118 -116 253 -252 813 -300 1508 -145
2121 93 366 255 682 492 959 160 187 328 332 568 490 504 334 1069 523 1715
575 349 28 1248 35 1445 10z m-575 -610 c380 -28 741 -101 1013 -206 741 -286
1272 -901 1457 -1689 119 -505 107 -1088 -31 -1569 -72 -249 -200 -556 -226
-540 -7 5 -76 56 -153 114 -77 58 -185 136 -241 172 -117 77 -142 107 -194
228 -97 226 -243 364 -548 515 -310 154 -680 276 -1002 330 -58 10 -108 21
-112 24 -4 4 10 52 32 108 73 188 75 289 7 390 -96 144 -368 217 -710 193
-320 -23 -477 -90 -548 -236 -53 -107 -43 -226 36 -425 5 -13 -22 -19 -190
-43 -413 -58 -701 -158 -940 -328 -158 -112 -319 -292 -391 -436 -136 -270 4
-517 398 -707 251 -121 641 -215 1103 -267 186 -20 808 -17 1000 5 323 39 637
103 941 193 230 67 350 112 484 178 138 68 194 107 305 210 l93 85 6 -30 c7
-38 -22 -123 -64 -190 -95 -148 -349 -307 -643 -404 -267 -88 -771 -179 -1277
-231 -211 -21 -829 -30 -1043 -15 -820 61 -1348 228 -1740 551 -91 74 -164
157 -151 169 5 4 68 59 139 122 72 63 159 139 195 169 106 90 105 86 60 227
-77 241 -137 523 -160 757 -14 141 -14 473 0 601 68 617 334 1093 793 1418
180 128 388 230 669 328 532 187 1106 267 1633 229z m-410 -2011 c272 -41 385
-124 385 -284 0 -76 -30 -162 -98 -280 -42 -74 -49 -91 -37 -98 9 -4 88 -22
178 -38 469 -86 829 -213 1160 -409 176 -104 298 -226 363 -365 53 -115 53
-115 0 -115 -38 0 -46 -3 -46 -18 0 -37 -53 -123 -105 -171 -151 -137 -604
-309 -1080 -410 -367 -77 -632 -110 -965 -118 -456 -11 -944 48 -1342 163
-447 128 -723 346 -720 568 2 161 216 436 462 596 264 171 722 300 1065 300
36 0 69 6 80 14 18 13 17 17 -24 102 -63 129 -81 188 -81 261 0 148 85 228
300 282 157 39 329 46 505 20z m-4500 -1292 c292 -214 383 -300 734 -692 123
-137 271 -298 329 -357 l106 -107 -77 -243 c-91 -290 -121 -404 -182 -688 -25
-118 -47 -215 -48 -216 -4 -4 -766 181 -772 187 -3 3 6 66 21 140 61 307 6
611 -171 957 -189 370 -349 505 -626 528 -94 7 -229 52 -229 75 0 11 132 105
368 263 346 233 369 247 402 241 21 -4 79 -39 145 -88z m6677 -469 c102 -55
225 -148 315 -240 l73 -73 -47 -104 c-58 -130 -67 -213 -34 -301 28 -74 67
-118 161 -185 105 -74 134 -85 226 -85 58 0 82 -4 96 -16 24 -22 99 -254 148
-457 58 -242 94 -472 122 -787 17 -192 17 -930 0 -1150 -24 -301 -90 -882
-108 -941 -4 -13 -22 -17 -87 -21 -106 -6 -154 -30 -352 -178 -493 -368 -999
-573 -1530 -619 -194 -17 -445 -24 -445 -13 0 6 11 58 25 116 37 155 32 198
-17 175 -22 -9 -121 -146 -157 -216 -19 -38 -41 -43 -103 -26 -84 23 -131 12
-230 -54 -145 -97 -261 -140 -523 -193 -1000 -203 -1917 -252 -2548 -135 -395
73 -812 228 -1118 417 l-49 29 25 47 c13 26 28 53 33 60 7 10 43 -1 163 -46
224 -86 353 -126 539 -166 687 -147 1201 -198 1762 -176 848 33 1376 142 1840
376 167 85 280 167 391 285 300 315 325 648 70 919 -267 284 -696 492 -1289
624 -539 120 -1074 151 -1769 101 -221 -16 -771 -61 -841 -69 -49 -6 -38 -40
-84 274 -119 827 -76 1570 130 2212 16 52 30 100 30 107 0 24 -40 9 -111 -44
-40 -31 -75 -52 -77 -46 -5 14 191 387 218 415 5 5 44 -24 92 -69 238 -221
646 -421 1038 -509 360 -80 775 -120 1255 -119 513 0 964 46 1480 153 337 70
507 122 690 210 271 131 435 291 480 469 23 90 24 91 31 91 4 0 42 -19 86 -42z
m735 -846 l28 -53 -25 -20 c-31 -26 -61 -21 -157 26 -79 39 -153 106 -184 167
-45 87 -33 201 31 302 l32 49 124 -209 c68 -115 136 -233 151 -262z m-6377
-2453 c0 -6 -18 -95 -41 -198 -68 -309 -168 -638 -274 -906 -52 -132 -171
-395 -183 -407 -10 -10 -154 75 -249 148 -227 174 -346 401 -313 594 20 116
70 202 184 316 177 176 409 307 771 435 88 32 105 34 105 18z m6580 -1161 c-1
-38 -45 -133 -93 -200 -128 -178 -321 -331 -584 -462 -432 -216 -959 -371
-1706 -500 l-37 -7 2 193 3 193 225 1 c239 2 376 16 575 59 278 60 541 160
807 306 146 79 474 297 543 360 69 64 104 78 193 79 68 0 72 -1 72 -22z
m-6946 -783 c388 -188 619 -263 986 -324 679 -113 1393 -89 2279 74 524 97
692 147 862 261 70 46 71 47 140 42 38 -3 71 -7 73 -9 2 -2 -11 -50 -30 -106
-63 -191 -79 -302 -78 -538 0 -153 5 -235 17 -303 42 -231 8 -393 -135 -631
-261 -436 -763 -825 -1265 -980 -402 -125 -875 -123 -1388 5 -490 123 -890
334 -1204 638 -243 236 -390 482 -484 811 -71 250 -84 392 -61 685 12 167 14
245 7 303 -9 75 -8 79 19 127 16 28 32 50 37 50 4 0 106 -47 225 -105z"/>
</g>
</svg>
