<?xml version="1.0" standalone="no"?>
<!DOCTYPE svg PUBLIC "-//W3C//DTD SVG 20010904//EN"
 "http://www.w3.org/TR/2001/REC-SVG-20010904/DTD/svg10.dtd">
<svg version="1.0" xmlns="http://www.w3.org/2000/svg"
 width="1876.000000pt" height="1038.000000pt" viewBox="0 0 1876.000000 1038.000000"
 preserveAspectRatio="xMidYMid meet">
<metadata>
Created by potrace 1.16, written by Peter Selinger 2001-2019
</metadata>
<style type="text/css">
<![CDATA[
  .animation-grind__path {
    stroke-dasharray: 208440;
    stroke-dashoffset: 208440;
    animation: dash 28s linear forwards;
  }
  @keyframes dash {
    to { stroke-dashoffset: 0; }
  }
]]>
</style>
<g transform="translate(0.000000,1038.000000) scale(0.100000,-0.100000)"
stroke="#7B797C" stroke-width="120" style="" class="animation-grind__path" fill-opacity="0">
<path d="M9469 10369 c-171 -25 -313 -78 -387 -144 -69 -62 -114 -150 -120
-236 -4 -63 -2 -71 24 -107 58 -78 142 -138 243 -172 88 -30 115 -58 105 -109
-9 -42 -57 -91 -120 -120 -26 -13 -216 -60 -424 -106 -768 -171 -2387 -515
-2420 -515 -4 0 -10 123 -13 273 -4 233 -7 282 -24 340 -40 135 -107 191 -228
192 -86 0 -127 -21 -169 -88 -60 -97 -59 -93 -63 -887 -2 -399 -7 -728 -11
-732 -10 -10 -1804 -521 -2607 -743 -192 -53 -372 -108 -400 -121 -82 -42
-129 -97 -150 -179 -4 -16 -7 -954 -6 -2083 l3 -2052 -1351 0 -1351 0 0 -50 0
-50 1349 0 1348 0 0 -327 c-1 -278 2 -339 16 -397 23 -92 69 -176 126 -229 57
-52 355 -285 1181 -923 349 -270 709 -548 800 -619 197 -153 244 -177 355
-183 79 -4 87 -2 1080 281 1021 292 1708 486 2605 737 300 84 525 152 554 168
51 28 86 67 107 117 9 23 11 193 10 702 l-3 671 84 7 c45 3 2123 5 4616 3
l4532 -3 0 48 0 47 -4616 0 -4615 0 1 1623 c1 1094 -2 1633 -9 1656 -23 74
-90 109 -180 93 l-49 -9 -6 50 c-9 61 -27 98 -62 126 -57 44 -77 40 -1016
-228 -931 -266 -1909 -542 -2722 -770 -275 -77 -520 -151 -545 -164 -26 -13
-59 -41 -76 -66 l-30 -43 -3 -1140 -2 -1140 -688 4 c-681 4 -687 4 -742 26
-128 51 -258 180 -333 331 l-42 84 -3 1656 c-3 1615 0 1921 20 1921 24 0 505
-359 891 -664 216 -172 255 -195 322 -196 63 0 107 33 149 111 16 30 39 66 52
81 l23 28 43 -35 c24 -19 103 -75 176 -124 389 -263 774 -382 1187 -368 223 8
267 17 835 168 536 143 2296 646 2359 675 40 18 161 115 161 129 0 21 -99 142
-151 186 -30 26 -301 237 -604 470 -302 232 -710 546 -905 697 -195 151 -375
284 -400 295 -25 11 -77 22 -116 24 -63 5 -88 0 -225 -40 -85 -25 -222 -64
-306 -85 l-152 -40 -7 65 c-15 146 8 191 116 223 76 23 28 12 1810 405 762
168 1415 314 1452 325 67 20 118 54 141 94 8 14 12 70 12 166 0 131 2 150 24
197 39 86 112 139 273 197 67 25 123 68 155 123 24 40 28 59 28 118 0 184
-154 302 -455 350 -102 16 -364 19 -461 4z m451 -120 c116 -7 177 -16 205 -28
54 -24 131 -104 151 -157 16 -43 16 -44 -10 -88 -24 -41 -106 -120 -186 -178
-33 -24 -169 -83 -174 -76 -2 2 -8 34 -15 72 -22 126 -65 178 -162 196 -117
22 -233 6 -298 -41 -45 -32 -96 -112 -112 -177 -6 -23 -14 -44 -18 -46 -3 -2
-68 55 -145 128 l-138 131 74 91 c126 151 137 157 323 172 159 13 317 13 505
1z m-221 -363 c20 -14 52 -42 71 -61 l34 -35 -187 0 c-103 0 -187 3 -187 8 0
4 19 29 43 55 70 80 143 90 226 33z m142 -268 l-49 -83 -197 -3 -197 -2 34 61
c18 34 43 68 55 76 23 15 162 29 315 32 l88 1 -49 -82z m-3707 -52 c51 -21
114 -83 126 -124 6 -21 15 -148 20 -285 5 -136 14 -265 20 -286 16 -61 40 -76
124 -75 73 0 231 33 2007 420 454 98 778 164 810 164 67 0 106 -22 149 -84 33
-48 63 -67 170 -106 l65 -24 -40 -8 c-125 -26 -2921 -644 -3024 -669 -154 -36
-213 -67 -241 -124 -21 -43 -39 -154 -40 -241 l0 -51 -142 -42 c-79 -23 -151
-44 -161 -47 -17 -5 -18 25 -15 734 l3 739 29 42 c31 44 73 80 94 81 7 0 28
-6 46 -14z m3686 -145 c0 -11 -100 -105 -129 -120 -34 -19 -101 -17 -145 4
-22 10 -64 42 -95 72 l-56 52 213 1 c116 0 212 -4 212 -9z m-2752 -1267 c144
-30 257 -94 460 -263 279 -231 508 -409 1172 -913 355 -269 486 -377 473 -388
-28 -25 -274 -100 -1116 -340 -1112 -317 -1746 -491 -1901 -522 -95 -20 -142
-23 -331 -23 -193 0 -234 3 -330 23 -299 64 -582 199 -867 414 l-108 81 27 36
c256 344 602 592 1024 734 95 32 213 66 281 81 l27 6 3 -432 c3 -428 3 -434
26 -484 29 -63 62 -96 127 -126 46 -21 63 -23 210 -22 524 4 991 223 1159 544
113 215 78 430 -100 620 -128 135 -284 228 -695 414 l-236 107 -7 52 c-11 92
-7 196 9 226 15 30 19 32 175 84 58 19 132 45 165 57 66 25 179 48 238 49 21
1 73 -6 115 -15z m-787 -363 c0 -68 -2 -126 -5 -128 -6 -6 -285 13 -292 19 -2
2 -8 36 -14 76 -19 122 9 152 181 186 l114 23 8 -26 c4 -14 8 -82 8 -150z
m-421 3 l0 -55 -55 -24 c-30 -14 -168 -70 -307 -125 -295 -118 -555 -243 -685
-329 -50 -34 -131 -98 -178 -143 -132 -124 -200 -229 -246 -378 -31 -100 -33
-291 -5 -427 l20 -92 -63 -129 -63 -129 -312 240 c-171 132 -410 315 -531 407
-209 158 -225 168 -310 195 -49 15 -95 30 -102 32 -7 3 -23 -31 -42 -90 l-30
-94 -1 -1729 c-1 -1877 -4 -1771 52 -1891 31 -67 110 -142 193 -183 39 -19 72
-36 75 -38 3 -2 -4 -10 -14 -18 -16 -11 -67 -14 -246 -14 l-227 0 -7 61 c-10
104 -7 4040 4 4079 11 41 61 91 105 108 17 6 352 101 745 211 393 110 1039
292 1435 405 396 112 737 205 758 205 l37 1 0 -56z m0 -422 l0 -207 -92 -24
c-319 -82 -627 -226 -865 -405 -106 -79 -291 -254 -370 -350 l-41 -49 -22 59
c-75 201 -2 417 225 662 112 121 268 234 440 317 212 103 524 194 703 204 l22
1 0 -208z m413 120 c44 -231 12 -278 -199 -289 l-101 -6 -6 33 c-4 18 -7 104
-7 191 l0 159 148 0 148 0 17 -88z m232 44 c206 -50 377 -121 520 -215 150
-98 319 -288 350 -395 45 -151 -15 -328 -159 -471 -197 -196 -578 -358 -876
-372 -194 -9 -277 23 -345 132 l-30 48 -3 412 -4 411 59 13 c258 58 305 103
343 331 5 36 13 80 16 98 3 17 10 32 17 32 7 0 57 -11 112 -24z m2689 -1319
c12 -46 0 -83 -34 -108 -28 -20 -45 -25 -1140 -334 -421 -119 -1190 -337
-1710 -485 -520 -148 -982 -279 -1028 -291 -95 -25 -151 -61 -178 -115 -18
-38 -19 -76 -22 -1065 l-2 -1027 -23 -6 c-49 -13 -104 -6 -123 15 -18 20 -19
53 -19 1093 l0 1073 30 48 c17 26 41 56 55 66 25 18 571 177 2350 683 514 146
1115 317 1335 380 299 85 413 114 450 113 49 -2 50 -3 59 -40z m221 -139 l25
-11 0 -1632 0 -1632 -24 -22 -24 -23 -39 42 c-79 87 -72 -65 -73 1618 0 1270
2 1508 14 1536 12 29 85 136 93 136 1 0 14 -5 28 -12z m-212 -1193 c4 -625 4
-1328 1 -1563 -8 -492 -5 -524 55 -583 38 -39 91 -59 154 -59 l37 0 0 -667 c0
-644 -1 -669 -20 -700 -10 -18 -29 -39 -42 -47 -40 -26 -1289 -371 -1312 -363
-11 4 -8 26 14 100 79 264 60 438 -59 558 -202 201 -541 174 -752 -60 -106
-116 -155 -242 -146 -371 9 -128 63 -233 186 -363 l71 -74 -848 -241 c-1192
-340 -1242 -353 -1332 -353 -123 -1 -150 14 -490 272 -766 582 -1811 1388
-1868 1443 -80 75 -77 55 -80 482 l-3 381 107 6 c449 28 611 -18 854 -238 171
-156 503 -410 867 -664 41 -28 233 -95 243 -84 12 14 49 157 60 229 5 38 10
196 10 350 l0 282 41 61 c22 33 42 61 44 61 1 0 20 -25 41 -56 l39 -56 5 -492
c5 -465 6 -493 25 -531 26 -51 69 -64 154 -47 115 24 3476 978 3553 1009 41
17 174 152 160 164 -4 4 -46 28 -95 53 l-87 46 -1815 0 -1815 0 0 603 c0 331
3 788 7 1016 l6 415 33 36 c18 20 55 48 81 62 47 26 943 284 2828 817 792 223
1061 299 1076 300 3 1 9 -510 12 -1134z m-4393 -2686 c0 -382 -3 -479 -12
-472 -15 8 -1218 931 -1232 944 -6 5 261 9 617 9 l627 0 0 -481z m4092 441 c4
-26 1 -31 -26 -39 -17 -6 -843 -240 -1836 -521 -993 -281 -1817 -515 -1832
-520 l-28 -9 0 560 0 559 1859 0 1859 0 4 -30z m-1051 -1053 c158 -76 249
-243 220 -403 -14 -74 -68 -185 -121 -246 -53 -61 -144 -121 -226 -148 -92
-31 -224 -26 -305 12 -147 68 -230 237 -199 405 34 179 173 336 348 394 84 28
208 22 283 -14z"/>
</g>
</svg>
