<?xml version="1.0" standalone="no"?>
<!DOCTYPE svg PUBLIC "-//W3C//DTD SVG 20010904//EN"
 "http://www.w3.org/TR/2001/REC-SVG-20010904/DTD/svg10.dtd">
<svg version="1.0" xmlns="http://www.w3.org/2000/svg"
 width="5462.000000pt" height="1810.000000pt" viewBox="0 0 5462.000000 1810.000000"
 preserveAspectRatio="xMidYMid meet">
<metadata>
Created by potrace 1.16, written by Peter Selinger 2001-2019
</metadata>
<style type="text/css">
<![CDATA[
  .animation-stir__path {
    stroke-dasharray: 301241;
    stroke-dashoffset: 301241;
    animation: dash 8s linear forwards;
  }

  @keyframes dash {
    to { stroke-dashoffset: 0; }
  }
]]>
</style>
<g transform="translate(0.000000,1810.000000) scale(0.100000,-0.100000)"
stroke="#000000" stroke-width="50" style="" class="animation-stir__path" fill-opacity="0">
<path d="M25787 18080 c-154 -60 -394 -326 -550 -608 -175 -316 -273 -639
-363 -1192 -72 -447 -163 -773 -312 -1121 -73 -171 -148 -316 -314 -608 -487
-857 -897 -1697 -1223 -2506 -405 -1006 -674 -1913 -774 -2615 -42 -297 -53
-435 -58 -766 -11 -683 60 -1126 242 -1499 80 -166 164 -284 290 -410 267
-266 611 -433 1215 -590 629 -164 820 -238 860 -335 22 -54 -19 -119 -140
-220 -145 -122 -341 -239 -459 -274 -30 -9 -156 -32 -280 -51 -670 -103 -857
-109 -1483 -45 -1110 112 -1768 204 -3364 469 -3276 545 -4837 741 -6714 845
-1308 73 -2613 80 -3835 21 -2101 -102 -4095 -392 -6049 -881 -551 -138 -828
-216 -1781 -505 l-560 -170 -67 -71 c-38 -39 -68 -77 -68 -83 0 -12 190 -65
234 -65 14 0 85 20 157 45 73 25 225 74 338 110 2510 784 5074 1239 7781 1380
645 33 925 39 1760 39 955 0 1439 -14 2305 -69 1657 -105 2965 -277 6550 -861
2529 -412 2923 -465 3673 -495 311 -12 686 -2 933 27 506 58 852 206 1130 483
95 96 122 130 153 193 82 166 52 301 -93 421 -113 93 -336 173 -868 312 -356
93 -538 151 -694 220 -337 149 -563 366 -695 664 -111 255 -193 628 -225 1036
-15 186 -6 614 16 815 95 874 438 2018 968 3230 145 332 290 637 513 1080 392
780 623 1194 651 1167 2 -3 -12 -196 -31 -429 -52 -611 -64 -810 -76 -1205
-24 -772 31 -1593 155 -2331 188 -1124 560 -2123 1157 -3111 202 -333 276
-513 329 -796 27 -139 37 -481 20 -646 -66 -629 -376 -1073 -894 -1278 -205
-82 -364 -110 -852 -151 -647 -55 -822 -81 -1020 -155 -606 -227 -1062 -742
-1160 -1310 -20 -116 -23 -343 -6 -450 7 -38 30 -146 52 -240 86 -362 119
-649 100 -870 -12 -136 -83 -518 -192 -1025 -38 -179 -69 -349 -69 -379 0
-158 165 -263 300 -191 14 7 230 216 480 464 538 533 868 848 965 922 83 62
230 134 330 160 54 15 106 19 230 19 141 0 179 -4 317 -33 444 -91 927 -111
1331 -57 996 136 1955 679 2784 1577 193 209 341 382 638 748 516 636 652 788
831 926 438 338 889 383 1383 138 248 -123 462 -285 732 -554 188 -187 270
-281 421 -481 328 -434 766 -1199 877 -1534 68 -206 75 -252 76 -506 l0 -226
35 -69 c64 -124 163 -164 274 -110 65 32 94 73 102 143 8 65 -32 250 -91 423
-55 162 -61 207 -45 330 61 490 182 1048 261 1209 79 159 222 270 399 307 171
36 528 -13 841 -116 172 -56 338 -138 569 -281 219 -135 291 -169 354 -169
145 0 240 163 173 296 -37 74 -152 199 -368 400 -743 694 -1443 1212 -2239
1659 -194 108 -639 331 -826 413 -664 291 -1282 455 -1887 503 -221 17 -700 6
-897 -20 -416 -57 -792 -159 -1182 -323 -156 -65 -699 -340 -1153 -583 -716
-383 -833 -444 -963 -495 -73 -29 -135 -51 -138 -48 -8 9 47 115 114 218 159
243 278 554 329 859 28 165 25 580 -5 756 -60 349 -169 680 -432 1315 -56 135
-146 353 -200 485 -54 132 -169 404 -255 605 -271 630 -361 858 -459 1157 -85
264 -101 357 -101 603 0 132 5 226 13 265 96 441 336 767 777 1060 345 229
716 418 1110 565 756 282 1663 507 2583 640 896 129 1697 180 2827 180 957 0
1667 -33 2760 -126 1054 -90 3083 -332 3087 -368 0 -6 -17 -22 -38 -38 -28
-19 -142 -59 -394 -137 -1606 -495 -3472 -1215 -4790 -1848 -1132 -544 -2148
-1242 -2840 -1949 -339 -347 -565 -687 -672 -1009 -51 -152 -62 -213 -62 -340
0 -186 48 -302 178 -430 88 -86 150 -128 273 -180 147 -64 2805 -958 3458
-1164 2960 -932 5350 -1414 7755 -1566 3581 -225 7084 258 10825 1492 743 245
1586 552 1673 609 18 12 92 147 92 168 0 2 -36 14 -81 26 -98 26 -122 22 -305
-51 -478 -189 -1492 -537 -2199 -753 -2332 -713 -4663 -1139 -6925 -1266 -893
-50 -1913 -52 -2790 -5 -2034 109 -3932 430 -5980 1011 -1042 296 -1671 494
-4650 1469 -107 35 -316 103 -465 150 -312 100 -433 154 -510 229 -78 76 -108
141 -113 246 -4 76 -1 96 27 180 54 161 253 499 439 744 251 332 675 738 1107
1059 460 343 933 623 1695 1005 1342 673 2757 1239 4410 1767 598 191 1352
413 1480 436 118 22 545 16 735 -10 83 -11 215 -29 295 -40 274 -37 982 -75
1311 -69 l206 3 58 30 c68 35 119 94 136 158 6 23 11 77 11 120 -1 62 -6 90
-27 135 -54 117 -135 171 -338 222 -301 76 -385 71 -1367 -75 -239 -36 -523
-79 -630 -96 -107 -17 -245 -33 -306 -36 -166 -9 -443 20 -1129 117 -2777 391
-5282 516 -7185 360 -1283 -106 -2430 -331 -3495 -685 -794 -264 -1340 -567
-1736 -964 -441 -442 -609 -951 -508 -1539 37 -221 136 -572 249 -887 126
-349 233 -605 540 -1290 452 -1008 566 -1313 631 -1696 29 -175 37 -473 15
-635 -44 -338 -177 -670 -377 -946 l-49 -68 0 -132 c0 -108 4 -141 19 -174 27
-59 88 -87 201 -92 164 -8 297 51 1150 513 550 297 1047 547 1240 624 422 167
823 266 1250 307 232 22 645 15 867 -15 336 -46 599 -109 978 -235 1159 -387
2233 -1032 3345 -2010 180 -158 242 -217 238 -226 -2 -4 -75 19 -163 51 -537
196 -729 243 -990 242 -163 0 -262 -18 -378 -68 -119 -51 -183 -93 -267 -175
-186 -182 -260 -354 -365 -852 -36 -172 -67 -313 -69 -315 -1 -1 -22 32 -46
75 -121 212 -506 848 -607 1001 -437 665 -878 1093 -1390 1349 -558 280 -1092
245 -1575 -101 -233 -167 -414 -356 -728 -762 -364 -469 -623 -768 -935 -1080
-849 -850 -1667 -1297 -2595 -1420 -69 -9 -228 -19 -355 -22 -325 -8 -518 10
-895 82 -215 40 -316 49 -445 35 -244 -25 -450 -113 -660 -282 -71 -57 -601
-563 -1082 -1031 -109 -107 -122 -117 -132 -99 -7 14 -5 43 9 108 10 49 32
152 49 229 34 158 74 412 93 590 8 74 13 247 13 450 0 369 -9 460 -73 780 -33
165 -36 195 -36 360 -1 194 11 276 60 424 128 381 427 689 821 845 263 104
605 160 1328 216 325 26 461 48 616 99 475 159 771 480 981 1065 97 272 131
469 132 766 1 253 -11 354 -69 564 -62 227 -137 391 -315 691 -296 499 -513
943 -702 1440 -515 1349 -681 2753 -552 4665 18 271 59 747 79 924 51 442 173
783 480 1337 181 326 316 604 590 1220 136 302 161 382 174 551 10 119 2 197
-22 245 -20 37 -65 79 -100 92 -43 17 -126 12 -180 -9z m32 -335 c-48 -394
-366 -1141 -641 -1507 -33 -43 -62 -77 -64 -75 -3 2 5 62 16 133 93 578 238
965 484 1292 71 93 205 246 212 240 1 -2 -2 -39 -7 -83z m16041 -4269 c124
-19 240 -56 315 -101 64 -39 108 -75 100 -83 -3 -3 -47 -14 -97 -24 -121 -25
-478 -36 -640 -19 -107 11 -713 89 -732 94 -16 5 196 66 319 92 246 53 543 69
735 41z"/>
</g>
</svg>
